<svg xmlns="http://www.w3.org/2000/svg" viewBox="0 0 48 48" role="img" aria-label="Rosella">
  <g stroke="#94a3b8" stroke-width="1" opacity="0.55" fill="none" stroke-linecap="round">
    <path d="M13 10 L8 11"/>
    <path d="M13 10 L11 16"/>
    <path d="M13 10 L18 13"/>
    <path d="M24 8 L18 13"/>
    <path d="M18 13 L11 16"/>
    <path d="M18 13 L29 18"/>
    <path d="M11 16 L17 24"/>
    <path d="M17 24 L29 18"/>
    <path d="M17 24 L26 31"/>
    <path d="M29 18 L26 31"/>
    <path d="M26 31 L34 40"/>
  </g>
  <circle cx="8" cy="11" r="2" fill="#F3722C"/>
  <circle cx="13" cy="10" r="3" fill="#E63946"/>
  <circle cx="24" cy="8" r="2.4" fill="#F4C430"/>
  <circle cx="18" cy="13" r="3.4" fill="#E63946"/>
  <circle cx="11" cy="16" r="2.8" fill="#F3722C"/>
  <circle cx="29" cy="18" r="3.1" fill="#17A2B8"/>
  <circle cx="17" cy="24" r="2.8" fill="#2E8B57"/>
  <circle cx="26" cy="31" r="2.8" fill="#2A6FB0"/>
  <circle cx="34" cy="40" r="2.3" fill="#7B5EA7"/>
</svg>
